<svg version="1" xmlns="http://www.w3.org/2000/svg" width="933.333" height="933.333" viewBox="0 0 700.000000 700.000000"><path d="M327.8.4c-.1.2-3.9.6-8.3 1-8.9.7-14.4 1.3-22.5 2.6-3 .5-7.3 1.2-9.5 1.5-2.3.3-5 .7-6 1-1.1.3-4.9 1.2-8.5 2-3.6.9-6.9 1.7-7.5 1.8-.5.2-2.6.7-4.5 1.1-4.3 1-16.9 4.9-27.5 8.6-78.4 27.3-146.9 84.8-188.2 158-15.6 27.6-28.4 59.7-34.9 87-5 21.4-7.2 34.5-9.1 55-1.6 16.5-.9 57 1.2 71.4.3 1.7.7 4.9.9 7.1 1 8.3 1.8 13.1 2.6 16.5.5 1.9 1.2 4.8 1.4 6.5 5.3 29.4 19.7 67.9 37.2 99.2 20.5 36.5 46.5 68 81 97.8 22.8 19.7 60.3 42.4 90.7 54.9 16 6.6 43.3 15.3 57.1 18.2 9.7 2.1 21.5 4.1 27.6 4.9 2.5.3 5.6.7 6.9 1 16.3 3.1 69.5 2.6 90.8-.9 2.1-.4 5.2-.8 6.8-1 7-.9 20.9-3.9 33.2-7.1 105.9-28.1 192.1-103.2 234.4-204.3 5-11.8 12.4-33.3 15-43.7 2-7.8 2.4-9.1 3.4-13.8 1.3-5.6 5.5-29.8 6.1-35.2.4-3.3.9-7.6 1.1-9.5.8-7 1-51.7.3-59.5-1.5-15.9-2.1-21-2.5-22.5-.2-.8-.7-3.5-1-6-.8-6-4-21.3-7-33-7.1-28-20.7-60.8-35.6-86.1-5.4-9.3-16.7-26.9-17.8-27.9-.4-.3-3.3-4.1-6.6-8.5-3.2-4.4-6.9-9.1-8.1-10.5-1.2-1.4-4.1-4.8-6.4-7.5-12.6-14.9-34.1-35.3-49-46.4-4.1-3.1-7.7-5.8-8-6.2-1.2-1.3-20.1-13.9-28-18.6-36.8-22-85.5-39.7-123-44.8-1.9-.3-4.6-.7-6-1-1.3-.2-5.2-.7-8.6-1.1-3.3-.3-7.4-.8-9-1-3.3-.5-54-1.4-54.6-1zm50.5 42c2.6.3 6.8.8 9.5 1.1 8.7 1 23.6 3.7 31.2 5.5 4.1 1.1 8.6 2.1 10 2.3 6.6 1.2 40.1 13.1 46.8 16.6.9.5 7.1 3.6 13.8 6.9 22 11 42.1 24.3 62.4 41.7 8.3 7.1 31.2 30.8 38.1 39.5 39.3 49.3 62.1 105.9 67.6 167.5 1.4 15.9.8 53-1.1 63-.2 1.1-.7 4.6-1.1 7.9-.9 7.8-1.2 9.2-4.1 22.6-10.9 49-34 95.1-66.7 133.5-7.4 8.6-27.1 28.2-34.7 34.6-3.6 3-6.7 5.6-7 5.9-.8.9-15.2 11.4-20 14.7-16.3 11.1-52.7 30.3-57.2 30.3-.8 0-1.8.4-2.4.9-1.4 1.5-26.7 9.7-39.9 12.9-10.3 2.6-19.3 4.3-35.5 6.7-18 2.6-60.2 2.6-76.2 0-1.3-.2-4.1-.6-6.3-1-37.2-5.4-71.5-17.1-105.5-35.7-16.7-9.2-37.2-23.5-52.5-36.8-8.7-7.4-30.4-30-37.6-39-8.8-10.9-20.7-28.2-26.8-38.8-4.9-8.5-17.1-32.7-17.1-34 0-.4-.9-2.7-2-5-2.4-5-10-27.5-12.9-38.2-2.1-8-5.5-25.3-6.6-33.3-.4-2.7-.8-5.7-1-6.7-2.6-13.4-2.6-55.6 0-76 3.5-28.2 12.7-61.8 23.2-85 11.4-25.3 23.4-45.4 39.2-66 8.9-11.5 11.5-14.5 26.6-29.5 12.2-12.2 17.2-16.8 27-24.5 2.2-1.7 4.8-3.8 5.8-4.6 3.8-3.1 22.5-15.3 31.2-20.3 23.3-13.4 49.9-24.3 75-30.7 11.2-2.9 11-2.9 22-4.9 15.5-2.8 16.9-3 31-4.1 5-.4 9.1-.8 9.3-.9.6-.5 39.8.3 44.5.9z"/><path d="M182.5 268c-23.4 3.5-23.1 37.8.3 40.5 2 .2 8 .7 13.2 1 17.7 1.1 35.8 6 52.1 14 48.6 24 78.6 70.2 81.2 125 .7 12.6 3.6 18.4 11.5 22.8 4.1 2.3 12.4 2.5 17.4.4 5.1-2.1 9.6-7.2 11.2-12.6 1.6-5.7 1.1-22.6-1.1-35-3.4-19.6-8.3-35.2-16.3-51.6-17.7-36.8-45.6-65.4-81.8-84.2-9.4-4.9-26.4-11.8-31.6-12.9-1-.2-3.3-.8-5-1.3-6.4-2.1-24.2-5.1-33-5.7-5-.3-10.2-.7-11.6-.8-1.4-.1-4.3.1-6.5.4zM506.7 267.6c-.1.1-3.6.5-7.7.8-27.9 2.5-52.9 10.4-77.3 24.4-14.8 8.5-31.7 22.3-43.5 35.4l-2.4 2.6 4.9 8.4c5.3 8.9 11.2 20.9 13.4 27 .7 2.1 1.8 3.8 2.4 3.8.5-.1 2.7-2.4 4.8-5.3 11.2-15.5 28.9-30.1 48.3-40.1 8.9-4.6 26.5-11.1 32.7-12.1 17.7-3 21-3.4 29.7-3.6 14.2-.3 23-8.3 23-20.9 0-11.8-8.2-19.5-21.4-20.3-3.6-.2-6.7-.3-6.9-.1z"/></svg>